<svg width="16" height="17" viewBox="0 0 16 17" fill="none" xmlns="http://www.w3.org/2000/svg">
<g id="calendar 1" clip-path="url(#clip0_0_1452)">
<g id="Group">
<path id="Vector" d="M13.6104 1.38647H12.2309V2.76593C12.2309 3.04182 12.001 3.22575 11.7711 3.22575C11.5412 3.22575 11.3113 3.04182 11.3113 2.76593V1.38647H3.95418V2.76593C3.95418 3.04182 3.72427 3.22575 3.49436 3.22575C3.26445 3.22575 3.03455 3.04182 3.03455 2.76593V1.38647H1.65509C0.965364 1.38647 0.459564 1.98424 0.459564 2.76593V4.42127H15.1737V2.76593C15.1737 1.98424 14.3461 1.38647 13.6104 1.38647ZM0.459564 5.38689V13.8016C0.459564 14.6292 0.965364 15.181 1.70107 15.181H13.6563C14.3921 15.181 15.2197 14.5833 15.2197 13.8016V5.38689H0.459564ZM4.55195 13.1118H3.44838C3.26445 13.1118 3.08053 12.9739 3.08053 12.744V11.5944C3.08053 11.4105 3.21847 11.2266 3.44838 11.2266H4.59793C4.78185 11.2266 4.96578 11.3645 4.96578 11.5944V12.744C4.9198 12.9739 4.78185 13.1118 4.55195 13.1118ZM4.55195 8.97347H3.44838C3.26445 8.97347 3.08053 8.83553 3.08053 8.60562V7.45607C3.08053 7.27215 3.21847 7.08822 3.44838 7.08822H4.59793C4.78185 7.08822 4.96578 7.22616 4.96578 7.45607V8.60562C4.9198 8.83553 4.78185 8.97347 4.55195 8.97347ZM8.23049 13.1118H7.08095C6.89702 13.1118 6.71309 12.9739 6.71309 12.744V11.5944C6.71309 11.4105 6.85104 11.2266 7.08095 11.2266H8.23049C8.41442 11.2266 8.59835 11.3645 8.59835 11.5944V12.744C8.59835 12.9739 8.4604 13.1118 8.23049 13.1118ZM8.23049 8.97347H7.08095C6.89702 8.97347 6.71309 8.83553 6.71309 8.60562V7.45607C6.71309 7.27215 6.85104 7.08822 7.08095 7.08822H8.23049C8.41442 7.08822 8.59835 7.22616 8.59835 7.45607V8.60562C8.59835 8.83553 8.4604 8.97347 8.23049 8.97347ZM11.909 13.1118H10.7595C10.5756 13.1118 10.3916 12.9739 10.3916 12.744V11.5944C10.3916 11.4105 10.5296 11.2266 10.7595 11.2266H11.909C12.093 11.2266 12.2769 11.3645 12.2769 11.5944V12.744C12.2769 12.9739 12.1389 13.1118 11.909 13.1118ZM11.909 8.97347H10.7595C10.5756 8.97347 10.3916 8.83553 10.3916 8.60562V7.45607C10.3916 7.27215 10.5296 7.08822 10.7595 7.08822H11.909C12.093 7.08822 12.2769 7.22616 12.2769 7.45607V8.60562C12.2769 8.83553 12.1389 8.97347 11.909 8.97347Z" fill="#124176"/>
</g>
</g>
<defs>
<clipPath id="clip0_0_1452">
<rect width="15.6338" height="15.6338" fill="white" transform="translate(0 0.466797)"/>
</clipPath>
</defs>
</svg>
