<svg width="10" height="10" viewBox="0 0 10 10" fill="none" xmlns="http://www.w3.org/2000/svg">
<g id="check-mark 1" clip-path="url(#clip0_1_359)">
<g id="7-Check">
<path id="Vector" d="M1.52736 4.6299C1.35478 4.63038 1.18585 4.67972 1.04014 4.7722C0.894421 4.86468 0.777867 4.99653 0.703958 5.15249C0.630049 5.30845 0.601807 5.48215 0.622499 5.6535C0.643191 5.82484 0.711971 5.98682 0.820882 6.1207L3.14261 8.96482C3.22539 9.06761 3.33151 9.14916 3.45214 9.20271C3.57276 9.25625 3.70443 9.28024 3.83619 9.27269C4.118 9.25755 4.37242 9.1068 4.53463 8.85894L9.35746 1.09178C9.35825 1.09049 9.35907 1.0892 9.35992 1.08794C9.40517 1.01845 9.3905 0.880762 9.29709 0.794262C9.27144 0.770508 9.24119 0.752259 9.20821 0.740637C9.17523 0.729016 9.14022 0.724269 9.10534 0.726688C9.07046 0.729108 9.03644 0.738643 9.00538 0.754706C8.97432 0.770769 8.94688 0.79302 8.92475 0.820089C8.92302 0.822218 8.92124 0.824314 8.9194 0.826378L4.05552 6.32184C4.03701 6.34275 4.01453 6.35978 3.98939 6.37193C3.96424 6.38408 3.93694 6.39112 3.90905 6.39262C3.88117 6.39413 3.85326 6.39008 3.82695 6.38072C3.80064 6.37135 3.77646 6.35685 3.75581 6.33805L2.14157 4.86909C1.97392 4.7154 1.7548 4.63007 1.52736 4.6299Z" fill="white"/>
</g>
</g>
<defs>
<clipPath id="clip0_1_359">
<rect width="10" height="10" fill="white"/>
</clipPath>
</defs>
</svg>
