<svg width="21" height="21" viewBox="0 0 21 21" fill="none" xmlns="http://www.w3.org/2000/svg">
<g id="giftbox 1" clip-path="url(#clip0_1_367)">
<path id="Vector" d="M18.6954 20.986H2.30424C1.87486 20.986 1.52687 20.638 1.52687 20.2086V7.67468H19.473V20.2086C19.473 20.638 19.1248 20.986 18.6954 20.986Z" fill="#FCDD2E"/>
<path id="Vector_2" d="M1.52687 7.67468H19.473V10.2829H1.52687V7.67468Z" fill="#FCDD2E"/>
<path id="Vector_3" d="M21 4.95562V8.18688C21 8.53199 20.7199 8.81157 20.3748 8.81157H0.624687C0.279579 8.81157 0 8.53199 0 8.18688V4.95562C0 4.61051 0.279579 4.33093 0.624687 4.33093H20.3748C20.7199 4.33093 21 4.61051 21 4.95562Z" fill="#FCDD2E"/>
<path id="Vector_4" d="M9.78607 5.81656C9.64973 5.97533 9.51595 6.13635 9.38537 6.29913C8.89879 6.90459 8.45338 7.53905 8.05076 8.19755C7.92691 8.40006 7.80739 8.60466 7.69139 8.81166H3.43233C3.68115 8.24706 3.954 7.69286 4.2496 7.15117C4.78569 6.1684 5.3974 5.22536 6.08089 4.33102C6.24415 4.11745 6.41125 3.90645 6.58253 3.69865C6.68507 3.57336 6.78937 3.44983 6.89511 3.32678C7.2838 3.66164 7.67216 3.99617 8.06101 4.33102C8.12125 4.38261 8.1815 4.43484 8.24158 4.4866C8.70044 4.88169 9.1593 5.27663 9.618 5.6722C9.67424 5.71995 9.73 5.76849 9.78607 5.81656Z" fill="#FCDD2E"/>
<path id="Vector_5" d="M16.1408 8.81166H11.8814C11.7659 8.60466 11.6459 8.40006 11.522 8.19755C11.1194 7.53905 10.6735 6.90459 10.1874 6.29913C10.0564 6.13635 9.92258 5.97533 9.78607 5.81656C9.84231 5.76849 9.89806 5.72027 9.9543 5.6722C10.4135 5.27663 10.8723 4.88121 11.331 4.4866C11.3913 4.43484 11.4515 4.38261 11.5118 4.33102C11.9005 3.99617 12.2893 3.66164 12.6777 3.32678C12.7834 3.44951 12.8877 3.57336 12.9903 3.69833C13.1618 3.90645 13.3291 4.11745 13.4919 4.33102C14.1754 5.22536 14.7871 6.1684 15.3235 7.15117C15.6191 7.69286 15.892 8.24706 16.1408 8.81166Z" fill="#FCDD2E"/>
<g id="Group">
<path id="Vector_6" d="M10.4997 5.81684C10.3632 5.97546 10.2294 6.13647 10.0988 6.29926C9.6124 6.90472 9.16683 7.53918 8.76421 8.19783C7.48599 10.2872 6.637 12.6213 6.27892 15.0643C5.74075 14.3505 5.24407 13.5782 4.79723 12.7525C4.0112 13.2652 3.24296 13.8516 2.50323 14.5114C2.88311 11.92 3.72009 9.42926 4.96321 7.15129C5.62715 5.93396 6.40741 4.77735 7.29598 3.69877C7.39851 3.57348 7.50282 3.45011 7.60856 3.3269C8.05749 3.71351 8.5061 4.10011 8.95519 4.48672C9.41389 4.88181 9.87275 5.27675 10.3316 5.67233C10.3877 5.72007 10.4434 5.76862 10.4997 5.81684Z" fill="#FF4440"/>
<path id="Vector_7" d="M18.4964 14.5114C17.7567 13.8516 16.9885 13.2652 16.2025 12.7525C15.7556 13.5782 15.2589 14.3505 14.7208 15.0643C14.3627 12.6213 13.5138 10.2872 12.2355 8.19783C11.8328 7.53918 11.387 6.90472 10.9009 6.29926C10.7698 6.13647 10.636 5.97546 10.4997 5.81684C10.5558 5.76862 10.6115 5.72039 10.6677 5.67233C11.1269 5.27675 11.5858 4.88133 12.0447 4.48672C12.4936 4.09963 12.9427 3.71351 13.3911 3.3269C13.4969 3.44963 13.6012 3.57348 13.7037 3.69845C14.5924 4.77703 15.3727 5.93364 16.0369 7.15129C17.2798 9.42926 18.1166 11.92 18.4964 14.5114Z" fill="#FF4440"/>
<path id="Vector_8" d="M8.82797 5.81689H12.1719V8.81168H8.82797V5.81689Z" fill="#FF4440"/>
</g>
<path id="Vector_9" d="M16.0369 7.15133L12.2355 8.19787C11.8328 7.53922 11.387 6.90475 10.9009 6.29929L10.6677 5.67236L10.4997 5.22023L12.0447 4.48676L13.7037 3.69849C14.5924 4.77707 15.3727 5.93368 16.0369 7.15133Z" fill="#EA2F2F"/>
<path id="Vector_10" d="M10.4997 5.22015L10.3316 5.67229L10.0988 6.29922C9.6124 6.90468 9.16683 7.53914 8.76421 8.19779L4.96321 7.15125C5.62715 5.93392 6.40741 4.77731 7.29597 3.69873L8.95518 4.48668L10.4997 5.22015Z" fill="#EA2F2F"/>
<path id="Vector_11" d="M16.5668 0.145284L10.4998 3.02647L11.6653 6.1608L18.1409 4.37839C18.9878 4.14527 19.4531 3.23636 19.1469 2.413L18.6124 0.975851C18.3064 0.152494 17.3603 -0.231547 16.5668 0.145284Z" fill="#FF4440"/>
<path id="Vector_12" d="M4.43289 0.145284L10.4998 3.02647L9.33441 6.1608L2.85891 4.37839C2.012 4.14527 1.54673 3.23636 1.85291 2.413L2.38723 0.975851C2.69341 0.152494 3.63933 -0.231547 4.43289 0.145284Z" fill="#FF4440"/>
<path id="Vector_13" d="M11.9485 4.28619C11.8383 4.28619 11.7301 4.23171 11.6665 4.1319C11.567 3.97633 11.6124 3.76965 11.768 3.67015C11.8139 3.64083 12.9066 2.94549 14.1611 2.43808C15.9697 1.70653 17.1774 1.74578 17.7503 2.55472C17.8572 2.70548 17.8214 2.91425 17.6707 3.02095C17.5199 3.12765 17.3113 3.09209 17.2046 2.94132C16.4279 1.84479 13.1984 3.54983 12.1283 4.23363C12.0725 4.2692 12.0102 4.28619 11.9485 4.28619Z" fill="#EA2F2F"/>
<path id="Vector_14" d="M9.01815 4.28619C8.95646 4.28619 8.89414 4.2692 8.83838 4.23363C7.76829 3.54983 4.53879 1.84479 3.76206 2.94132C3.65519 3.09209 3.44659 3.12765 3.29583 3.02095C3.14522 2.91409 3.10949 2.70548 3.21636 2.55472C3.78929 1.74578 4.99685 1.70653 6.80555 2.43808C8.06005 2.94533 9.15273 3.64083 9.19871 3.67015C9.35428 3.76965 9.39962 3.97633 9.30029 4.1319C9.23636 4.23171 9.12838 4.28619 9.01815 4.28619Z" fill="#EA2F2F"/>
<path id="Vector_15" d="M11.4512 1.94922H9.54847C9.02776 1.94922 8.60559 2.37139 8.60559 2.89226V5.65649C8.60559 6.17735 9.02776 6.59953 9.54847 6.59953H11.4512C11.9719 6.59953 12.3941 6.17735 12.3941 5.65649V2.89226C12.3941 2.37139 11.9719 1.94922 11.4512 1.94922Z" fill="#EA2F2F"/>
<path id="Vector_16" d="M8.82797 8.81165H12.1719V20.9861H8.82797V8.81165Z" fill="#FF4440"/>
<path id="Vector_17" d="M8.82797 8.81165H12.1719V10.2829H8.82797V8.81165Z" fill="#EA2F2F"/>
</g>
<defs>
<clipPath id="clip0_1_367">
<rect width="21" height="21" fill="white"/>
</clipPath>
</defs>
</svg>
