<svg width="14" height="14" viewBox="0 0 14 14" fill="none" xmlns="http://www.w3.org/2000/svg">
<g id="gmail 1">
<g id="Group">
<path id="Vector" d="M0.954543 12.2512H3.18183V6.84215L1.72337 4.29541L0 4.45578V11.2967C0 11.8241 0.427164 12.2512 0.954543 12.2512Z" fill="#0085F7"/>
<path id="Vector_2" d="M10.8182 12.2512H13.0455C13.5728 12.2512 14 11.8241 14 11.2967V4.45578L12.2791 4.29541L10.8182 6.84215V12.2512H10.8182Z" fill="#00A94B"/>
<path id="Vector_3" d="M10.8181 2.70564L9.50983 5.20221L10.8181 6.84202L14 4.45564V3.18293C14 2.00327 12.6533 1.32952 11.7091 2.03747L10.8181 2.70564Z" fill="#FFBC00"/>
<path id="Vector_4" fill-rule="evenodd" clip-rule="evenodd" d="M3.1818 6.84194L1.93512 4.20846L3.1818 2.70557L6.99998 5.5692L10.8181 2.70557V6.84194L6.99998 9.70557L3.1818 6.84194Z" fill="#FF4131"/>
<path id="Vector_5" d="M0 3.18293V4.45564L3.18183 6.84202V2.70564L2.29091 2.03747C1.34671 1.32952 0 2.00327 0 3.18293Z" fill="#E51C19"/>
</g>
</g>
</svg>
