<svg width="17" height="16" viewBox="0 0 17 16" fill="none" xmlns="http://www.w3.org/2000/svg">
<g id="icons8_facebook_f 8">
<path id="Vector" d="M10.88 3.52014H12.58C12.7677 3.52014 12.92 3.37678 12.92 3.20014V1.0443C12.92 0.876617 12.783 0.737097 12.6055 0.725257C12.0646 0.689097 11.0079 0.640137 10.248 0.640137C8.16002 0.640137 6.80002 1.81774 6.80002 3.9579V6.08014H4.42002C4.23234 6.08014 4.08002 6.2235 4.08002 6.40014V8.64014C4.08002 8.81678 4.23234 8.96014 4.42002 8.96014H6.80002V15.0401C6.80002 15.2168 6.95234 15.3601 7.14002 15.3601H9.52002C9.7077 15.3601 9.86002 15.2168 9.86002 15.0401V8.96014H12.3155C12.4889 8.96014 12.6344 8.83758 12.6535 8.67534L12.918 6.43534C12.9404 6.2459 12.7827 6.08014 12.58 6.08014H9.86002V4.48014C9.86002 3.9499 10.3166 3.52014 10.88 3.52014Z" fill="white"/>
</g>
</svg>
