<svg width="14" height="14" viewBox="0 0 14 14" fill="none" xmlns="http://www.w3.org/2000/svg">
<g id="instagram (2) 1" clip-path="url(#clip0_9_221)">
<path id="Vector" d="M0.875015 0.952509C-0.225152 2.09526 1.451e-05 3.30918 1.451e-05 6.99701C1.451e-05 10.0595 -0.534319 13.1296 2.26218 13.8523C3.13543 14.0769 10.8728 14.0769 11.7448 13.8512C12.9092 13.5508 13.8565 12.6063 13.986 10.9596C14.0041 10.7298 14.0041 3.26834 13.9854 3.03384C13.8478 1.27976 12.768 0.268842 11.3453 0.064092C11.0192 0.016842 10.9538 0.002842 9.28085 -7.46623e-05C3.3466 0.002842 2.04576 -0.261408 0.875015 0.952509Z" fill="url(#paint0_linear_9_221)"/>
<path id="Vector_2" d="M6.99883 1.83116C4.88074 1.83116 2.86941 1.64274 2.10116 3.61441C1.78383 4.42874 1.82991 5.48633 1.82991 7.00066C1.82991 8.32949 1.78733 9.57841 2.10116 10.3863C2.86766 12.3592 4.89533 12.1702 6.99766 12.1702C9.02591 12.1702 11.1172 12.3813 11.8947 10.3863C12.2127 9.56383 12.166 8.522 12.166 7.00066C12.166 4.98116 12.2774 3.67741 11.298 2.69858C10.3063 1.70691 8.96524 1.83116 6.99649 1.83116H6.99883ZM6.53566 2.76274C10.9538 2.75574 11.5162 2.26458 11.2058 9.08783C11.0956 11.5011 9.25808 11.2362 6.99941 11.2362C2.88108 11.2362 2.76266 11.1184 2.76266 6.99833C2.76266 2.83041 3.08933 2.76508 6.53566 2.76158V2.76274ZM9.75799 3.62083C9.41558 3.62083 9.13791 3.89849 9.13791 4.24091C9.13791 4.58333 9.41558 4.86099 9.75799 4.86099C10.1004 4.86099 10.3781 4.58333 10.3781 4.24091C10.3781 3.89849 10.1004 3.62083 9.75799 3.62083ZM6.99883 4.34591C5.53291 4.34591 4.34466 5.53474 4.34466 7.00066C4.34466 8.46658 5.53291 9.65483 6.99883 9.65483C8.46474 9.65483 9.65241 8.46658 9.65241 7.00066C9.65241 5.53474 8.46474 4.34591 6.99883 4.34591ZM6.99883 5.27749C9.27674 5.27749 9.27966 8.72383 6.99883 8.72383C4.72149 8.72383 4.71799 5.27749 6.99883 5.27749Z" fill="white"/>
</g>
<defs>
<linearGradient id="paint0_linear_9_221" x1="0.90186" y1="13.1057" x2="13.9134" y2="1.84441" gradientUnits="userSpaceOnUse">
<stop stop-color="#FFDD55"/>
<stop offset="0.5" stop-color="#FF543E"/>
<stop offset="1" stop-color="#C837AB"/>
</linearGradient>
<clipPath id="clip0_9_221">
<rect width="14" height="14" fill="white"/>
</clipPath>
</defs>
</svg>
