<svg width="81" height="13" viewBox="0 0 81 13" fill="none" xmlns="http://www.w3.org/2000/svg">
<g id="Stars">
<path id="Vector" d="M12.2882 4.74459C12.2085 4.48882 11.9911 4.30774 11.7348 4.28355L8.23977 3.95251L6.8585 0.578742C6.75652 0.330875 6.52447 0.170898 6.2662 0.170898C6.00792 0.170898 5.77578 0.330875 5.67445 0.578742L4.29318 3.95251L0.797567 4.28355C0.541322 4.30822 0.324336 4.4893 0.244155 4.74459C0.164436 5.00036 0.238058 5.28089 0.431859 5.45822L3.07385 7.87512L2.29486 11.4545C2.23786 11.7177 2.33578 11.9899 2.5451 12.1477C2.65761 12.233 2.7898 12.2756 2.92244 12.2756C3.03643 12.2756 3.15052 12.244 3.2524 12.1804L6.2662 10.3004L9.27943 12.1804C9.50048 12.3182 9.77844 12.3056 9.9873 12.1477C10.1966 11.9899 10.2945 11.7177 10.2375 11.4545L9.45855 7.87512L12.1005 5.45822C12.2942 5.28089 12.368 5.00094 12.2882 4.74459Z" fill="#FF9500"/>
<path id="Vector_2" d="M29.2477 4.74459C29.168 4.48882 28.9505 4.30774 28.6943 4.28355L25.1992 3.95251L23.818 0.578742C23.716 0.330875 23.4839 0.170898 23.2257 0.170898C22.9674 0.170898 22.7353 0.330875 22.6339 0.578742L21.2527 3.95251L17.757 4.28355C17.5008 4.30822 17.2838 4.4893 17.2036 4.74459C17.1239 5.00036 17.1975 5.28089 17.3913 5.45822L20.0333 7.87512L19.2543 11.4545C19.1973 11.7177 19.2953 11.9899 19.5046 12.1477C19.6171 12.233 19.7493 12.2756 19.8819 12.2756C19.9959 12.2756 20.11 12.244 20.2119 12.1804L23.2257 10.3004L26.2389 12.1804C26.46 12.3182 26.7379 12.3056 26.9468 12.1477C27.1561 11.9899 27.254 11.7177 27.197 11.4545L26.418 7.87512L29.06 5.45822C29.2537 5.28089 29.3274 5.00094 29.2477 4.74459Z" fill="#FF9500"/>
<path id="Vector_3" d="M46.2001 4.74459C46.1204 4.48882 45.9029 4.30774 45.6467 4.28355L42.1516 3.95251L40.7704 0.578742C40.6684 0.330875 40.4363 0.170898 40.1781 0.170898C39.9198 0.170898 39.6876 0.330875 39.5863 0.578742L38.205 3.95251L34.7094 4.28355C34.4532 4.30822 34.2362 4.4893 34.156 4.74459C34.0763 5.00036 34.1499 5.28089 34.3437 5.45822L36.9857 7.87512L36.2067 11.4545C36.1497 11.7177 36.2476 11.9899 36.457 12.1477C36.5695 12.233 36.7017 12.2756 36.8343 12.2756C36.9483 12.2756 37.0624 12.244 37.1643 12.1804L40.1781 10.3004L43.1913 12.1804C43.4123 12.3182 43.6903 12.3056 43.8992 12.1477C44.1085 11.9899 44.2064 11.7177 44.1494 11.4545L43.3704 7.87512L46.0124 5.45822C46.2061 5.28089 46.2798 5.00094 46.2001 4.74459Z" fill="#FF9500"/>
<path id="Vector_4" d="M63.1596 4.74459C63.0799 4.48882 62.8624 4.30774 62.6062 4.28355L59.1111 3.95251L57.7298 0.578742C57.6279 0.330875 57.3958 0.170898 57.1375 0.170898C56.8793 0.170898 56.6471 0.330875 56.5458 0.578742L55.1645 3.95251L51.6689 4.28355C51.4127 4.30822 51.1957 4.4893 51.1155 4.74459C51.0358 5.00036 51.1094 5.28089 51.3032 5.45822L53.9452 7.87512L53.1662 11.4545C53.1092 11.7177 53.2071 11.9899 53.4164 12.1477C53.5289 12.233 53.6611 12.2756 53.7938 12.2756C53.9078 12.2756 54.0219 12.244 54.1237 12.1804L57.1375 10.3004L60.1508 12.1804C60.3718 12.3182 60.6498 12.3056 60.8586 12.1477C61.068 11.9899 61.1659 11.7177 61.1089 11.4545L60.3299 7.87512L62.9719 5.45822C63.1656 5.28089 63.2393 5.00094 63.1596 4.74459Z" fill="#FF9500"/>
<path id="Vector_5" d="M80.1154 4.74459C80.0357 4.48882 79.8183 4.30774 79.562 4.28355L76.067 3.95251L74.6857 0.578742C74.5837 0.330875 74.3517 0.170898 74.0934 0.170898C73.8351 0.170898 73.603 0.330875 73.5017 0.578742L72.1204 3.95251L68.6248 4.28355C68.3685 4.30822 68.1515 4.4893 68.0714 4.74459C67.9916 5.00036 68.0653 5.28089 68.2591 5.45822L70.9011 7.87512L70.1221 11.4545C70.0651 11.7177 70.163 11.9899 70.3723 12.1477C70.4848 12.233 70.617 12.2756 70.7497 12.2756C70.8636 12.2756 70.9777 12.244 71.0796 12.1804L74.0934 10.3004L77.1066 12.1804C77.3277 12.3182 77.6056 12.3056 77.8145 12.1477C78.0238 11.9899 78.1217 11.7177 78.0647 11.4545L77.2858 7.87512L79.9277 5.45822C80.1215 5.28089 80.1952 5.00094 80.1154 4.74459Z" fill="#D7D7D7"/>
</g>
</svg>
