<svg width="12" height="13" viewBox="0 0 12 13" fill="none" xmlns="http://www.w3.org/2000/svg">
<path d="M11.6655 5.17787C11.59 4.93564 11.3841 4.76414 11.1414 4.74123L7.83127 4.42771L6.52309 1.23245C6.42651 0.997703 6.20674 0.846191 5.96213 0.846191C5.71752 0.846191 5.49767 0.997703 5.4017 1.23245L4.09352 4.42771L0.782866 4.74123C0.540179 4.76459 0.334674 4.93609 0.258736 5.17787C0.183236 5.42011 0.252962 5.6858 0.436508 5.85374L2.9387 8.14275L2.20093 11.5328C2.14695 11.782 2.23968 12.0398 2.43793 12.1893C2.54449 12.2701 2.66968 12.3104 2.79531 12.3104C2.90327 12.3104 3.01131 12.2805 3.10781 12.2202L5.96213 10.4397L8.81593 12.2202C9.02528 12.3508 9.28853 12.3388 9.48634 12.1893C9.68458 12.0398 9.77732 11.782 9.72334 11.5328L8.98557 8.14275L11.4878 5.85374C11.6712 5.6858 11.741 5.42066 11.6655 5.17787Z" fill="#D7D7D7"/>
</svg>
