<svg width="16" height="15" viewBox="0 0 16 15" fill="none" xmlns="http://www.w3.org/2000/svg">
<path d="M6.68164 12.3486C5.83203 12.3486 5.03125 12.1875 4.2793 11.8652C3.52734 11.543 2.87305 11.1011 2.31641 10.5396C1.75977 9.97803 1.32031 9.32617 0.998047 8.58398C0.666016 7.83203 0.5 7.03125 0.5 6.18164C0.5 5.32227 0.666016 4.52148 0.998047 3.7793C1.32031 3.02734 1.75977 2.37061 2.31641 1.80908C2.87305 1.24756 3.52734 0.805664 4.2793 0.483398C5.03125 0.161133 5.83203 0 6.68164 0C7.53125 0 8.33203 0.161133 9.08398 0.483398C9.83594 0.805664 10.4902 1.24756 11.0469 1.80908C11.6035 2.37061 12.0479 3.02734 12.3799 3.7793C12.7021 4.52148 12.8633 5.32227 12.8633 6.18164C12.8633 7.03125 12.7021 7.83203 12.3799 8.58398C12.0479 9.32617 11.6035 9.97803 11.0469 10.5396C10.4902 11.1011 9.83594 11.543 9.08398 11.8652C8.33203 12.1875 7.53125 12.3486 6.68164 12.3486ZM6.68164 1.17188C5.98828 1.17188 5.33887 1.30371 4.7334 1.56738C4.12793 1.83105 3.59814 2.18994 3.14404 2.64404C2.68994 3.09814 2.33105 3.62793 2.06738 4.2334C1.80371 4.83887 1.67188 5.48828 1.67188 6.18164C1.67188 6.86523 1.80371 7.51465 2.06738 8.12988C2.33105 8.73535 2.68994 9.26514 3.14404 9.71924C3.59814 10.1733 4.12793 10.5322 4.7334 10.7959C5.33887 11.0498 5.98828 11.1768 6.68164 11.1768C7.375 11.1768 8.02441 11.0498 8.62988 10.7959C9.23535 10.5322 9.76514 10.1733 10.2192 9.71924C10.6733 9.26514 11.0322 8.73535 11.2959 8.12988C11.5596 7.51465 11.6914 6.86523 11.6914 6.18164C11.6914 5.48828 11.5596 4.83887 11.2959 4.2334C11.0322 3.62793 10.6733 3.09814 10.2192 2.64404C9.76514 2.18994 9.23535 1.83105 8.62988 1.56738C8.02441 1.30371 7.375 1.17188 6.68164 1.17188ZM15.3242 14.8242C15.4414 14.7168 15.5 14.5801 15.5 14.4141C15.5 14.248 15.4414 14.1113 15.3242 14.0039L12.7021 11.3818C12.585 11.2646 12.4458 11.2061 12.2847 11.2061C12.1235 11.2061 11.9893 11.2646 11.8818 11.3818C11.7646 11.499 11.7061 11.6382 11.7061 11.7993C11.7061 11.9604 11.7646 12.0947 11.8818 12.2021L14.4893 14.8242C14.5479 14.8828 14.6138 14.9268 14.687 14.9561C14.7603 14.9854 14.8359 15 14.9141 15C14.9824 15 15.0532 14.9854 15.1265 14.9561C15.1997 14.9268 15.2656 14.8828 15.3242 14.8242Z" fill="white"/>
</svg>
