<svg width="16" height="16" viewBox="0 0 16 16" fill="none" xmlns="http://www.w3.org/2000/svg">
<g id="youtube (2) 1" clip-path="url(#clip0_9_180)">
<g id="Group">
<g id="Group_2">
<path id="Vector" d="M15.7769 4.18798C15.693 3.48738 15.0327 2.81557 14.3419 2.72556C10.1294 2.20216 5.86975 2.20216 1.65866 2.72556C0.967275 2.81537 0.307027 3.48738 0.223041 4.18798C-0.0743471 6.75564 -0.0743471 9.24526 0.223041 11.8123C0.307027 12.5129 0.967275 13.1854 1.65866 13.2748C5.86975 13.7982 10.1296 13.7982 14.3419 13.2748C15.0327 13.1855 15.693 12.5129 15.7769 11.8123C16.0744 9.2455 16.0744 6.75564 15.7769 4.18798ZM6.66657 10.6673V5.33382L10.6666 8.00067L6.66657 10.6673Z" fill="#DB2A1F"/>
</g>
</g>
</g>
<defs>
<clipPath id="clip0_9_180">
<rect width="16" height="16" fill="white"/>
</clipPath>
</defs>
</svg>
